<?xml version="1.0" standalone="no"?>
<!DOCTYPE svg PUBLIC "-//W3C//DTD SVG 20010904//EN"
 "http://www.w3.org/TR/2001/REC-SVG-20010904/DTD/svg10.dtd">
<svg version="1.0" xmlns="http://www.w3.org/2000/svg"
 width="1199.000000pt" height="1199.000000pt" viewBox="0 0 1199.000000 1199.000000"
 preserveAspectRatio="xMidYMid meet">
<metadata>
Created by potrace 1.14, written by Peter Selinger 2001-2017
</metadata>
<g transform="translate(0.000000,1199.000000) scale(0.100000,-0.100000)"
fill="#000000" stroke="none">
<path d="M1740 11973 c-293 -48 -261 -41 -420 -93 -517 -172 -940 -563 -1156
-1068 -65 -152 -109 -308 -141 -502 -4 -25 -8 -1960 -9 -4300 -2 -3489 0
-4272 11 -4350 47 -342 179 -653 394 -935 66 -87 243 -261 341 -337 220 -169
481 -291 771 -360 l94 -23 4340 -3 c2892 -1 4362 1 4405 8 36 5 75 12 88 15
12 3 30 7 40 9 9 2 44 11 77 20 33 10 65 18 70 20 102 25 289 109 414 184 362
217 641 539 801 927 32 79 86 250 96 310 2 16 10 46 17 65 19 56 21 8716 2
8821 -62 339 -211 664 -419 909 -126 148 -330 322 -491 419 -116 69 -321 162
-415 186 -8 3 -51 14 -95 26 -92 24 -96 25 -162 35 -26 3 -57 9 -68 13 -22 6
-8544 11 -8585 4z m8590 -740 c112 -27 170 -47 259 -89 323 -152 558 -438 654
-792 l32 -117 2 -4205 c3 -4531 6 -4274 -47 -4460 -103 -364 -408 -677 -780
-800 -191 -63 141 -59 -4475 -57 -2316 1 -4223 6 -4240 10 -170 44 -226 62
-302 97 -371 174 -638 530 -691 924 -4 28 -7 1943 -7 4256 0 4035 1 4208 18
4290 82 378 321 687 661 850 82 39 179 75 230 84 16 3 52 10 80 16 28 5 62 12
76 14 14 2 1919 3 4235 2 l4210 -2 85 -21z"/>
<path d="M3276 8714 c-608 -608 -1106 -1107 -1106 -1109 0 -7 762 -765 768
-765 4 0 505 498 1115 1108 l1107 1107 -383 383 c-210 210 -385 382 -389 382
-3 0 -504 -498 -1112 -1106z"/>
<path d="M4227 7762 l-1109 -1109 2223 -2222 2222 -2223 1111 1111 1111 1111
-2220 2220 c-1221 1221 -2222 2220 -2225 2220 -3 0 -504 -499 -1113 -1108z"/>
<path d="M8856 3124 c-537 -537 -976 -977 -976 -979 0 -2 441 -3 980 -3 911
-1 980 1 981 16 5 93 2 1942 -2 1942 -4 0 -446 -439 -983 -976z"/>
</g>
</svg>
